# xmcd
#
# Track frame offsets: 
#        150
#        13820
#        30515
#        45650
#        57670
#        70495
#        86692
#        98512
#        114515
#        127437
#        141992
#        159015
#
# Disc length: 2294 seconds
#
# Revision: 0
# Processed by: cddbd v1.5PL3 Copyright (c) Steve Scherf et al.
# Submitted via: ExactAudioCopy v0.90b4
#
DISCID=a608f40c
DTITLE=Barbara Mandrell - Acoustic Attitude
DYEAR=1900
DGENRE=Country
TTITLE0=Sleeping Single In A Double Bed
TTITLE1=Fast Lanes And Country Roads
TTITLE2=The Best Of Strangers
TTITLE3=I Wish You Were Here
TTITLE4=To Me
TTITLE5=When You Get To The Heart
TTITLE6=Tonight My Baby's Coming Home
TTITLE7=If Loving You Is Wrong (I Don't Want To Be Right)
TTITLE8=I Wish That I Could Fall In Love Today
TTITLE9=I Was Country When Country Wasn't Cool
TTITLE10=Years
TTITLE11=In Times Like These
EXTD=
EXTT0=
EXTT1=
EXTT2=
EXTT3=
EXTT4=
EXTT5=
EXTT6=
EXTT7=
EXTT8=
EXTT9=
EXTT10=
EXTT11=
PLAYORDER=
